<svg viewBox="0 0 434 74" fill="none" xmlns="http://www.w3.org/2000/svg">
  <path fill="currentColor" d="M11.786 71.902H.716V2.852h9.514l1.383 13.256C16.716 6.578 25.363.773 35.914.773c12.28 0 21.794 7.884 26.031 20.447C66.53 8.83 76.474.773 88.581.773c16.777 0 28.712 15.335 28.712 36.994v34.135h-11.07V37.767c0-16.028-8.561-26.684-20.928-26.684-12.107 0-20.669 10.743-20.669 26.684v34.135h-11.07V37.767c0-16.028-8.302-26.684-20.928-26.684-12.367 0-20.842 10.743-20.842 26.684v34.135ZM173.419.773c21.188 0 36.668 14.902 36.668 36.734 0 21.573-15.48 36.474-36.668 36.474-20.669 0-36.235-15.594-36.235-36.474 0-21.139 15.566-36.734 36.235-36.734Zm0 62.725c15.307 0 25.598-10.483 25.598-26.077 0-15.595-10.464-26.251-25.598-26.251-14.442 0-25.166 11.176-25.166 26.25 0 14.989 10.897 26.078 25.166 26.078ZM229.285 2.853l25.512 56.053 25.771-56.053h11.675l-31.565 69.049H248.83l-31.392-69.05h11.847ZM310.923 40.54c1.297 14.208 11.07 24.604 24.128 24.604 9.686 0 17.469-4.938 22.053-12.822h11.329c-5.622 13.429-17.902 21.66-33.382 21.66-20.236 0-35.284-15.595-35.284-36.475 0-21.139 14.788-36.734 35.284-36.734 20.929 0 35.717 14.902 35.717 36.734 0 .953-.173 1.906-.173 3.033h-59.672Zm48.689-6.325C358.401 19.747 348.715 9.87 335.051 9.87c-13.058 0-22.917 10.05-24.128 24.345h48.689ZM433.725 12.383c-19.285 0-31.738 15.334-31.738 39.94v19.579h-11.07V2.852h9.513l1.557 21.92C407.781 9.87 419.197.773 433.725.773v11.61Z"/>
</svg>