<svg viewBox="0 0 12 14" fill="none" xmlns="http://www.w3.org/2000/svg">
  <path fill="currentColor" d="M9.961 11.954h.508a1.475 1.475 0 0 0 1.47-1.476c0-2.389 0-4.774.003-7.163a.556.556 0 0 0-.173-.413c-.887-.889-1.78-1.777-2.667-2.67a.536.536 0 0 0-.412-.17c-1.73.004-3.46 0-5.19.004-.792 0-1.452.662-1.456 1.46v.52h-.492A1.474 1.474 0 0 0 .066 3.538v8.912a1.47 1.47 0 0 0 1.486 1.488c2.308 0 4.615-.004 6.923.004.8-.004 1.502-.686 1.486-1.496-.004-.157 0-.31 0-.492Zm.978-7.92v6.312c0 .042.004.083 0 .124-.016.186-.095.343-.268.422a.88.88 0 0 1-.326.062c-1.804.004-3.604.004-5.408.004H3.592c-.178 0-.335-.054-.446-.198-.091-.116-.108-.252-.108-.393V1.674c0-.417.186-.603.603-.603h4.334v.186c0 .442-.004.888.005 1.33 0 .12.02.249.053.364.178.65.747 1.08 1.433 1.083h1.473Zm-1.985 7.92c0 .19.016.368-.004.537-.03.257-.22.422-.48.443-.04.004-.082 0-.123 0H1.569c-.297-.013-.496-.215-.508-.513V3.527c.02-.261.186-.451.446-.476.173-.017.347-.004.532-.004v7.37c0 .09-.004.185.013.277.14.834.87 1.268 1.506 1.26 1.73-.016 3.46-.004 5.19-.004.065.004.127.004.206.004Zm1.486-8.92c-.33 0-.66.008-.987-.004a.48.48 0 0 1-.479-.471c-.012-.33-.004-.662-.004-1 .496.496.974.98 1.47 1.475Z"/>
  <path fill="currentColor" d="M8.475 14c.408 0 .813-.174 1.11-.475a1.49 1.49 0 0 0 .438-1.083c-.004-.104 0-.207 0-.319v-.107h.445A1.54 1.54 0 0 0 12 10.478V3.32a.618.618 0 0 0-.19-.459c-.887-.888-1.779-1.777-2.667-2.67A.614.614 0 0 0 8.69 0H3.501c-.834 0-1.515.682-1.52 1.517V1.976H1.552A1.54 1.54 0 0 0 .004 3.53v8.912c0 .868.681 1.55 1.548 1.55h2.332c1.503 0 3.06 0 4.59.004-.003.004 0 .004 0 .004Zm1.486-2.108h-.062v.554c.008.368-.136.719-.405.992a1.446 1.446 0 0 1-1.02.438h-.003c-1.532-.004-3.084-.004-4.59-.004H1.547a1.41 1.41 0 0 1-1.424-1.426V3.538c0-.798.627-1.426 1.424-1.43h.553v-.583A1.419 1.419 0 0 1 3.496.128h5.189c.149 0 .264.05.368.153.887.889 1.775 1.782 2.666 2.67.108.1.157.215.157.364V10.474c0 .777-.631 1.41-1.407 1.414h-.339l-.17.004Zm-1.544 1.104h.062c.293-.021.503-.215.536-.496.013-.12.009-.244.009-.373 0-.057-.004-.115-.004-.173v-.062H7.278c-1.218 0-2.477-.004-3.716.008-.615.004-1.308-.409-1.444-1.21-.013-.075-.013-.158-.013-.236V2.992h-.062c-.057 0-.115 0-.173-.005a2.694 2.694 0 0 0-.367.009c-.281.029-.475.24-.5.533C1 3.567 1 3.604 1 3.637v8.792c.012.331.235.558.566.575H8.38c.012-.008.025-.008.037-.008Zm.479-.98c0 .041 0 .079.004.116.004.124.008.24-.008.355-.025.22-.186.368-.421.385H1.573c-.264-.013-.438-.186-.45-.455V3.53c.02-.236.169-.397.388-.418.115-.012.231-.008.35-.004.038 0 .075 0 .112.004v7.341c0 .083 0 .17.013.257.148.872.9 1.318 1.568 1.314 1.239-.012 2.498-.008 3.715-.008h1.627Zm-1.994-1c1.14 0 2.295 0 3.434-.005a.932.932 0 0 0 .351-.066c.178-.078.285-.24.306-.47.004-.034.004-.067.004-.096V3.972H9.46c-.66 0-1.2-.409-1.378-1.046a1.41 1.41 0 0 1-.05-.347c-.004-.322-.004-.649-.004-.967V1H3.633c-.446 0-.665.22-.665.666v8.688c0 .137.012.294.12.43.115.149.276.223.495.223H5.92c.33.009.656.009.982.009Zm3.975-6.92V10.462c-.016.186-.095.31-.231.368a.79.79 0 0 1-.305.057c-1.47.005-2.968.005-4.413.005H3.59c-.181 0-.305-.054-.396-.174-.083-.107-.095-.236-.095-.355V1.674c0-.38.161-.541.54-.541h4.274v.487c0 .319 0 .645.003.968 0 .128.021.26.054.38.186.682.776 1.124 1.494 1.128h1.412ZM9.845 3.1h.747L8.908 1.405V1.86c-.004.227-.004.467.004.699.013.301.236.52.537.533.132.004.264.008.396.008Zm.446-.128h-.153c-.223 0-.458.004-.685-.004a.413.413 0 0 1-.417-.414 12.77 12.77 0 0 1-.004-.69v-.157l1.259 1.265Z"/>
</svg>