<svg width="40" height="42" viewBox="0 0 40 42" fill="none" xmlns="http://www.w3.org/2000/svg">
    <g clip-path="url(#clip0_8_479)">
        <path d="M4.87969 37.0697H29.9082L28.7128 33.2165C28.8902 33.3703 38.9671 41.9697 38.9671 41.9697V4.35527C38.8478 2.01715 36.8257 0.0302734 34.3191 0.0302734L4.88846 0.0355159C2.38368 0.0355159 0.351074 2.02589 0.351074 4.36402V32.743C0.351074 35.2086 2.38017 37.0697 4.87969 37.0697ZM23.3943 9.96117L23.3365 9.98214L23.3575 9.96117H23.3943ZM9.99982 12.1787C13.2172 9.84759 16.1995 9.95942 16.1995 9.95942L16.44 10.1953C12.5029 11.1302 10.7177 12.8812 10.7177 12.8812C10.9003 12.8428 18.8499 8.27661 28.4829 12.9965C28.4829 12.9965 26.6943 11.3592 22.9994 10.3107L23.3259 9.99088C23.8367 9.99262 26.5398 10.087 29.4324 12.1927C29.4324 12.1927 32.6692 17.6972 32.6692 24.46C32.5622 24.3306 30.6611 27.3712 25.7693 27.4761C25.7693 27.4761 24.9408 26.5429 24.3511 25.7286C27.2121 24.9108 28.2829 23.2752 28.2829 23.2752C22.7133 26.7666 17.832 26.2214 11.9921 23.8623C11.9377 23.8623 11.9131 23.8378 11.885 23.8099V23.7994C11.8569 23.7731 11.8323 23.747 11.7779 23.747H11.6726C11.3145 23.5128 11.0758 23.3975 11.0758 23.3975C11.0758 23.3975 12.1448 25.0331 14.8918 25.8509C14.1704 26.6704 13.456 27.6019 13.456 27.6019C8.56577 27.4866 6.7824 24.4459 6.7824 24.4459C6.7824 17.6727 9.99982 12.1787 9.99982 12.1787Z" fill="white"/>
        <path d="M23.7101 22.3474C24.958 22.3474 25.9743 21.2989 25.9743 20.0059C25.9743 18.7213 24.9633 17.6729 23.7101 17.6729V17.6782C22.4674 17.6782 21.4493 18.7232 21.4458 20.0163C21.4458 21.2989 22.462 22.3474 23.7101 22.3474Z" fill="white"/>
        <path d="M15.6047 22.3474C16.8525 22.3474 17.8689 21.2989 17.8689 20.0059C17.8689 18.7213 16.8596 17.6729 15.6116 17.6729L15.6047 17.6782C14.3566 17.6782 13.3403 18.7232 13.3403 20.0163C13.3403 21.2989 14.3566 22.3474 15.6047 22.3474Z" fill="white"/>
    </g>
    <defs>
        <clipPath id="clip0_8_479">
            <rect width="39.3182" height="41.9394" fill="white" transform="translate(0 0.0302734)"/>
        </clipPath>
    </defs>
</svg>
