<svg width="40" height="40" viewBox="0 0 40 40" fill="none" xmlns="http://www.w3.org/2000/svg">
    <g clip-path="url(#clip0_8_485)">
        <path d="M20.1137 1.16003C9.25203 1.16003 0.45459 9.81003 0.45459 20.4784C0.45459 29.0153 6.08692 36.2548 13.8966 38.8072C14.8795 38.989 15.2398 38.3911 15.2398 37.8784C15.2398 37.4197 15.2235 36.2041 15.2153 34.5936C9.74679 35.7585 8.59345 32.0019 8.59345 32.0019C7.69896 29.7723 6.40638 29.1758 6.40638 29.1758C4.62559 27.9783 6.54399 28.0029 6.54399 28.0029C8.51809 28.1372 9.55511 29.9934 9.55511 29.9934C11.308 32.9471 14.157 32.0936 15.2808 31.6004C15.4578 30.3505 15.964 29.5002 16.5259 29.017C12.1599 28.5336 7.57118 26.8724 7.57118 19.4709C7.57118 17.3624 8.33297 15.639 9.59443 14.2873C9.37326 13.7991 8.70977 11.8349 9.76645 9.17439C9.76645 9.17439 11.4129 8.6567 15.1727 11.155C16.7454 10.7258 18.4164 10.5128 20.0875 10.503C21.7585 10.5128 23.4295 10.7258 25.0022 11.155C28.7375 8.6567 30.3839 9.17439 30.3839 9.17439C31.4406 11.8349 30.777 13.7991 30.5804 14.2873C31.8338 15.639 32.5956 17.3624 32.5956 19.4709C32.5956 26.8922 28.0003 28.5255 23.6261 29.0006C24.3142 29.5805 24.9531 30.765 24.9531 32.5753C24.9531 35.1604 24.9285 37.2377 24.9285 37.8653C24.9285 38.3714 25.2726 38.976 26.2801 38.7825C34.1453 36.2465 39.7728 29.0022 39.7728 20.4784C39.7728 9.81003 30.9705 1.16003 20.1137 1.16003Z" fill="currentColor"/>
    </g>
    <defs>
        <clipPath id="clip0_8_485">
            <rect width="39.3182" height="39.3182" fill="currentColor" transform="translate(0.45459 0.340881)"/>
        </clipPath>
    </defs>
</svg>
