<svg viewBox="0 0 167 138" fill="none" xmlns="http://www.w3.org/2000/svg">
  <path fill="currentColor" d="M97.68 0H61.273c-.778 0-1.47.087-2.162.26-4.15.953-7.264 4.765-7.264 9.183v.694a9.473 9.473 0 0 0 5.102 8.403c1.297.693 2.768 1.04 4.324 1.04h36.495c5.189 0 9.426 4.245 9.426 9.443v.693c0 5.198-4.237 9.444-9.426 9.444H10.335C5.146 39.16.91 43.405.91 48.603v.693c0 5.198 4.237 9.444 9.426 9.444H57.9c5.188 0 9.426 4.245 9.426 9.443v.693c0 5.198-4.238 9.443-9.426 9.443H32.388c-5.19 0-9.427 4.246-9.427 9.444v.693c0 5.198 4.238 9.443 9.427 9.443h65.38c5.188 0 9.425 4.245 9.425 9.444v.693c0 5.198-4.237 9.443-9.426 9.443h-44.71c-5.19 0-9.427 4.245-9.427 9.443v.694c0 5.198 4.238 9.443 9.427 9.443h48.169c.779 0 1.47-.087 2.162-.26 35.198-2.946 62.785-32.402 62.785-68.443C166.26 30.67 135.559 0 97.681 0ZM78.569 68.876c0-5.285 4.324-9.617 9.6-9.617 5.275 0 9.6 4.332 9.6 9.617 0 5.285-4.325 9.617-9.6 9.617-5.362-.087-9.6-4.332-9.6-9.617Z"/>
</svg>