<svg width="40" height="40" viewBox="0 0 40 40" fill="none" xmlns="http://www.w3.org/2000/svg">
    <g clip-path="url(#clip0_8_487)">
        <path d="M11.771 8.20453C17.8954 8.20453 22.8597 13.4637 22.8597 19.951C22.8597 26.4381 17.895 31.6969 11.771 31.6969C5.647 31.6969 0.681885 26.4381 0.681885 19.951C0.681885 13.4637 5.64663 8.20453 11.771 8.20453ZM29.4794 8.8926C32.5417 8.8926 35.024 13.8431 35.024 19.951H35.0243C35.0243 26.0572 32.5421 31.0092 29.4798 31.0092C26.4177 31.0092 23.9353 26.0572 23.9353 19.951C23.9353 13.8447 26.4173 8.8926 29.4794 8.8926ZM38.05 10.0444C39.1267 10.0444 40.0001 14.4796 40.0001 19.951C40.0001 25.4206 39.1272 29.8574 38.05 29.8574C36.973 29.8574 36.1005 25.4218 36.1005 19.951C36.1005 14.48 36.9734 10.0444 38.05 10.0444Z" fill="currentColor"/>
    </g>
    <defs>
        <clipPath id="clip0_8_487">
            <rect width="39.3182" height="39.3182" fill="white" transform="translate(0.681885 0.340881)"/>
        </clipPath>
    </defs>
</svg>
