<svg width="40" height="40" viewBox="0 0 40 40" fill="none" xmlns="http://www.w3.org/2000/svg">
    <g clip-path="url(#clip0_8_483)">
        <path d="M39.5455 7.8089C38.0834 8.45027 36.5253 8.87539 34.9009 9.08181C36.572 8.08412 37.8475 6.5163 38.4471 4.62658C36.889 5.55547 35.1688 6.2116 33.3357 6.57774C31.8563 5.00257 29.7479 4.02698 27.4478 4.02698C22.9852 4.02698 19.3924 7.64917 19.3924 12.0897C19.3924 12.7286 19.4465 13.3429 19.5792 13.9278C12.8779 13.601 6.94825 10.3892 2.96482 5.49649C2.26938 6.70308 1.86146 8.08412 1.86146 9.57084C1.86146 12.3624 3.29903 14.837 5.44187 16.2696C4.14682 16.2451 2.87636 15.8691 1.80002 15.2768C1.80002 15.3015 1.80002 15.3334 1.80002 15.3653C1.80002 19.2824 4.59406 22.536 8.25803 23.2855C7.6019 23.465 6.88681 23.5509 6.14468 23.5509C5.62863 23.5509 5.10766 23.5215 4.61864 23.4133C5.66303 26.6054 8.62664 28.9522 12.1505 29.0285C9.40809 31.1737 5.92597 32.4663 2.15635 32.4663C1.49531 32.4663 0.861301 32.4369 0.227295 32.3557C3.79788 34.6583 8.02949 35.973 12.5929 35.973C27.4256 35.973 35.535 23.6861 35.535 13.0358C35.535 12.6794 35.5227 12.3354 35.5055 11.9938C37.1053 10.8585 38.4494 9.44061 39.5455 7.8089Z" fill="currentColor"/>
    </g>
    <defs>
        <clipPath id="clip0_8_483">
            <rect width="39.3182" height="39.3182" fill="white" transform="translate(0.227295 0.340881)"/>
        </clipPath>
    </defs>
</svg>
